<?xml version="1.0" encoding="UTF-8" standalone="no"?>
<svg width="383px" height="383px" viewBox="0 0 383 383" version="1.1" xmlns="http://www.w3.org/2000/svg" xmlns:xlink="http://www.w3.org/1999/xlink" xmlns:sketch="http://www.bohemiancoding.com/sketch/ns">
    <!-- Generator: Sketch 3.3.3 (12072) - http://www.bohemiancoding.com/sketch -->
    <title>Artboard</title>
    <desc>Created with Sketch.</desc>
    <defs></defs>
    <g id="Page-1" stroke="none" stroke-width="1" fill="none" fill-rule="evenodd" sketch:type="MSPage">
        <g id="Artboard" sketch:type="MSArtboardGroup">
            <path d="M191.5,383 C297.26253,383 383,297.26253 383,191.5 C383,85.7374704 297.26253,0 191.5,0 C85.7374704,0 0,85.7374704 0,191.5 C0,297.26253 85.7374704,383 191.5,383 Z" id="Oval-1" fill="#FE0000" sketch:type="MSShapeGroup"></path>
            <path d="M72.7163878,140.267212 L117.841366,139.267212 L212.379118,69.8717651 C212.379118,69.8717651 220.265033,61.3936779 221.348323,70.1350171 C222.431612,78.8763564 220.907802,299.38835 221.265029,311.320437 C221.622256,323.252523 210.235827,312.049621 210.235827,312.049621 L119.518724,243.206305 L73,242.206305 L72.7163878,140.267212 Z" id="Path-1" fill="#FFFFFF" sketch:type="MSShapeGroup"></path>
            <path d="M272.235975,193.898125 C272.793686,163.762031 250.676921,140.348302 250.676921,140.348302 C250.676921,140.348302 243.663411,133.598467 252.635417,125.984534 C261.607422,118.370602 267.988045,125.399424 267.988045,125.399424 C267.988045,125.399424 293.15926,148.86924 293.15926,191.898125 C293.15926,234.927009 267.777542,259.953574 267.777542,259.953574 C267.777542,259.953574 262.678386,267.074064 253.351237,261.299314 C244.024089,255.524565 249.583128,248.084779 249.583128,248.084779 C249.583128,248.084779 271.678264,224.034218 272.235975,193.898125 Z" id="Path-2" fill="#FFFFFF" sketch:type="MSShapeGroup"></path>
            <path d="M318.068576,193.307144 C319.226345,144.948655 280.138557,99.997222 280.138557,99.997222 C280.138557,99.997222 273.833471,90.7488953 281.039185,83.7237759 C288.2449,76.6986566 294.777183,83.8571992 294.777183,83.8571992 C294.777183,83.8571992 341.05699,128.61715 341.05699,192.345045 C341.05699,256.07294 297.465418,301.138514 297.465418,301.138514 C297.465418,301.138514 290.315129,308.124729 281.099351,304.131621 C271.883572,300.138513 279.518596,287.560244 279.518596,287.560244 C279.518596,287.560244 316.910807,241.665632 318.068576,193.307144 Z" id="Path-2-Copy" fill="#FFFFFF" sketch:type="MSShapeGroup"></path>
        </g>
    </g>
</svg>