<?xml version="1.0" encoding="UTF-8" standalone="no"?>
<svg width="43px" height="51px" viewBox="0 0 43 51" version="1.1" xmlns="http://www.w3.org/2000/svg" xmlns:xlink="http://www.w3.org/1999/xlink" xmlns:sketch="http://www.bohemiancoding.com/sketch/ns">
    <!-- Generator: Sketch 3.2.2 (9983) - http://www.bohemiancoding.com/sketch -->
    <title>Shape 3</title>
    <desc>Created with Sketch.</desc>
    <defs></defs>
    <g id="Page-1" stroke="none" stroke-width="1" fill="none" fill-rule="evenodd" sketch:type="MSPage">
        <path d="M39.6232339,12.2745431 L39.6232339,12.2745431 C36.2725665,5.57320824 29.3448352,1 21.3756803,1 C13.4065253,1 6.47879403,5.57320824 3.12812661,12.2745431 C1.76974792,14.9913004 3.12812661,12.2745431 3.12812661,12.2745431 C1.76974792,14.9913004 1,18.1155714 1,21.3756803 L1,41.7513605 L23.5038069,41.7513605 C28.846763,41.7513605 35.5028186,38.0384588 38.2195759,33.4652506 C42.7475049,25.9036092 42.611667,18.2514093 39.6232339,12.2745431 L39.6232339,12.2745431 Z M21.3756803,36.0008908 C13.3159667,36.0008908 6.75046976,29.4353938 6.75046976,21.3756803 C6.75046976,13.3159667 13.3159667,6.75046976 21.3756803,6.75046976 C29.4353938,6.75046976 36.0008908,13.3159667 36.0008908,21.3756803 C36.0008908,29.4353938 29.4353938,36.0008908 21.3756803,36.0008908 L21.3756803,36.0008908 Z" id="Shape-3" stroke="#666666" fill="#BBE3FA" sketch:type="MSShapeGroup" transform="translate(21.380113, 21.375680) rotate(-45.000000) translate(-21.380113, -21.375680) "></path>
    </g>
</svg>